<mxfile host="app.diagrams.net" modified="2024-06-26T14:31:51.078Z" agent="Mozilla/5.0 (X11; Linux x86_64) AppleWebKit/537.36 (KHTML, like Gecko) Chrome/126.0.0.0 Safari/537.36" etag="HdKL3_G2DOLCi-TGOR4m" version="24.6.3" type="github">
  <diagram name="Page-1" id="e7e014a7-5840-1c2e-5031-d8a46d1fe8dd">
    <mxGraphModel dx="1343" dy="793" grid="1" gridSize="10" guides="1" tooltips="1" connect="1" arrows="1" fold="1" page="1" pageScale="1" pageWidth="1169" pageHeight="826" background="none" math="0" shadow="0">
      <root>
        <mxCell id="0" />
        <mxCell id="1" parent="0" />
        <mxCell id="lW97UnTnqZeZ66I5s9BI-41" value="vendor" style="shape=umlActor;verticalLabelPosition=bottom;verticalAlign=top;html=1;outlineConnect=0;" vertex="1" parent="1">
          <mxGeometry x="40" y="250" width="30" height="60" as="geometry" />
        </mxCell>
        <mxCell id="lW97UnTnqZeZ66I5s9BI-42" value="customer" style="shape=umlActor;verticalLabelPosition=bottom;verticalAlign=top;html=1;outlineConnect=0;" vertex="1" parent="1">
          <mxGeometry x="790" y="220" width="30" height="60" as="geometry" />
        </mxCell>
        <object label="" id="lW97UnTnqZeZ66I5s9BI-45">
          <mxCell style="rounded=0;whiteSpace=wrap;html=1;" vertex="1" parent="1">
            <mxGeometry x="190" y="10" width="420" height="610" as="geometry" />
          </mxCell>
        </object>
        <mxCell id="lW97UnTnqZeZ66I5s9BI-46" value="signup" style="ellipse;whiteSpace=wrap;html=1;" vertex="1" parent="1">
          <mxGeometry x="313.12" y="30" width="160" height="50" as="geometry" />
        </mxCell>
        <mxCell id="lW97UnTnqZeZ66I5s9BI-50" value="" style="curved=1;endArrow=classic;html=1;rounded=0;entryX=0;entryY=0.5;entryDx=0;entryDy=0;" edge="1" parent="1" source="lW97UnTnqZeZ66I5s9BI-41" target="lW97UnTnqZeZ66I5s9BI-46">
          <mxGeometry width="50" height="50" relative="1" as="geometry">
            <mxPoint x="560" y="450" as="sourcePoint" />
            <mxPoint x="610" y="400" as="targetPoint" />
            <Array as="points" />
          </mxGeometry>
        </mxCell>
        <mxCell id="lW97UnTnqZeZ66I5s9BI-52" value="login" style="ellipse;whiteSpace=wrap;html=1;" vertex="1" parent="1">
          <mxGeometry x="336.87" y="120" width="140" height="50" as="geometry" />
        </mxCell>
        <mxCell id="lW97UnTnqZeZ66I5s9BI-53" value="" style="curved=1;endArrow=classic;html=1;rounded=0;entryX=0;entryY=0.5;entryDx=0;entryDy=0;" edge="1" parent="1" target="lW97UnTnqZeZ66I5s9BI-52" source="lW97UnTnqZeZ66I5s9BI-41">
          <mxGeometry width="50" height="50" relative="1" as="geometry">
            <mxPoint x="220" y="210" as="sourcePoint" />
            <mxPoint x="610" y="490" as="targetPoint" />
            <Array as="points" />
          </mxGeometry>
        </mxCell>
        <mxCell id="lW97UnTnqZeZ66I5s9BI-54" value="upload product/update product" style="ellipse;whiteSpace=wrap;html=1;" vertex="1" parent="1">
          <mxGeometry x="300" y="200" width="220" height="50" as="geometry" />
        </mxCell>
        <mxCell id="lW97UnTnqZeZ66I5s9BI-55" value="" style="curved=1;endArrow=classic;html=1;rounded=0;entryX=0;entryY=0.5;entryDx=0;entryDy=0;" edge="1" parent="1" target="lW97UnTnqZeZ66I5s9BI-54" source="lW97UnTnqZeZ66I5s9BI-41">
          <mxGeometry width="50" height="50" relative="1" as="geometry">
            <mxPoint x="64.01" y="258.5960563380283" as="sourcePoint" />
            <mxPoint x="313.11957593817965" y="220.00161499549353" as="targetPoint" />
            <Array as="points" />
          </mxGeometry>
        </mxCell>
        <mxCell id="lW97UnTnqZeZ66I5s9BI-60" value="" style="endArrow=classic;html=1;rounded=0;entryX=1;entryY=0.5;entryDx=0;entryDy=0;" edge="1" parent="1" source="lW97UnTnqZeZ66I5s9BI-42" target="lW97UnTnqZeZ66I5s9BI-46">
          <mxGeometry width="50" height="50" relative="1" as="geometry">
            <mxPoint x="710" y="320" as="sourcePoint" />
            <mxPoint x="760" y="270" as="targetPoint" />
          </mxGeometry>
        </mxCell>
        <mxCell id="lW97UnTnqZeZ66I5s9BI-61" value="" style="endArrow=classic;html=1;rounded=0;entryX=0.958;entryY=0.36;entryDx=0;entryDy=0;entryPerimeter=0;" edge="1" parent="1" source="lW97UnTnqZeZ66I5s9BI-42" target="lW97UnTnqZeZ66I5s9BI-52">
          <mxGeometry width="50" height="50" relative="1" as="geometry">
            <mxPoint x="710" y="320" as="sourcePoint" />
            <mxPoint x="860" y="270" as="targetPoint" />
          </mxGeometry>
        </mxCell>
        <mxCell id="lW97UnTnqZeZ66I5s9BI-62" value="view product&amp;nbsp;" style="ellipse;whiteSpace=wrap;html=1;" vertex="1" parent="1">
          <mxGeometry x="313.12" y="270" width="158.75" height="50" as="geometry" />
        </mxCell>
        <mxCell id="lW97UnTnqZeZ66I5s9BI-63" value="" style="endArrow=classic;html=1;rounded=0;entryX=1;entryY=0.5;entryDx=0;entryDy=0;" edge="1" parent="1" source="lW97UnTnqZeZ66I5s9BI-42" target="lW97UnTnqZeZ66I5s9BI-62">
          <mxGeometry width="50" height="50" relative="1" as="geometry">
            <mxPoint x="900" y="400" as="sourcePoint" />
            <mxPoint x="950" y="350" as="targetPoint" />
          </mxGeometry>
        </mxCell>
        <mxCell id="lW97UnTnqZeZ66I5s9BI-64" value="order product" style="ellipse;whiteSpace=wrap;html=1;" vertex="1" parent="1">
          <mxGeometry x="330" y="350" width="105" height="40" as="geometry" />
        </mxCell>
        <mxCell id="lW97UnTnqZeZ66I5s9BI-65" value="" style="endArrow=classic;html=1;rounded=0;" edge="1" parent="1" source="lW97UnTnqZeZ66I5s9BI-42" target="lW97UnTnqZeZ66I5s9BI-64">
          <mxGeometry width="50" height="50" relative="1" as="geometry">
            <mxPoint x="1030" y="170" as="sourcePoint" />
            <mxPoint x="550" y="410" as="targetPoint" />
          </mxGeometry>
        </mxCell>
        <mxCell id="lW97UnTnqZeZ66I5s9BI-66" value="manage order" style="ellipse;whiteSpace=wrap;html=1;" vertex="1" parent="1">
          <mxGeometry x="341.87" y="420" width="130" height="50" as="geometry" />
        </mxCell>
        <mxCell id="lW97UnTnqZeZ66I5s9BI-67" value="logout" style="ellipse;whiteSpace=wrap;html=1;" vertex="1" parent="1">
          <mxGeometry x="333.12" y="520" width="120" height="40" as="geometry" />
        </mxCell>
        <mxCell id="lW97UnTnqZeZ66I5s9BI-68" value="" style="endArrow=classic;html=1;rounded=0;" edge="1" parent="1" source="lW97UnTnqZeZ66I5s9BI-41" target="lW97UnTnqZeZ66I5s9BI-67">
          <mxGeometry width="50" height="50" relative="1" as="geometry">
            <mxPoint x="330" y="550" as="sourcePoint" />
            <mxPoint x="380" y="500" as="targetPoint" />
          </mxGeometry>
        </mxCell>
        <mxCell id="lW97UnTnqZeZ66I5s9BI-69" value="" style="endArrow=classic;html=1;rounded=0;" edge="1" parent="1" source="lW97UnTnqZeZ66I5s9BI-42" target="lW97UnTnqZeZ66I5s9BI-67">
          <mxGeometry width="50" height="50" relative="1" as="geometry">
            <mxPoint x="720" y="400" as="sourcePoint" />
            <mxPoint x="1106" y="786" as="targetPoint" />
          </mxGeometry>
        </mxCell>
        <mxCell id="lW97UnTnqZeZ66I5s9BI-70" value="" style="endArrow=classic;html=1;rounded=0;entryX=0;entryY=0.5;entryDx=0;entryDy=0;" edge="1" parent="1" source="lW97UnTnqZeZ66I5s9BI-41" target="lW97UnTnqZeZ66I5s9BI-66">
          <mxGeometry width="50" height="50" relative="1" as="geometry">
            <mxPoint x="430" y="590" as="sourcePoint" />
            <mxPoint x="480" y="540" as="targetPoint" />
          </mxGeometry>
        </mxCell>
        <mxCell id="lW97UnTnqZeZ66I5s9BI-71" value="" style="endArrow=classic;html=1;rounded=0;entryX=1;entryY=0.5;entryDx=0;entryDy=0;" edge="1" parent="1" source="lW97UnTnqZeZ66I5s9BI-42" target="lW97UnTnqZeZ66I5s9BI-66">
          <mxGeometry width="50" height="50" relative="1" as="geometry">
            <mxPoint x="100" y="185" as="sourcePoint" />
            <mxPoint x="486" y="571" as="targetPoint" />
          </mxGeometry>
        </mxCell>
        <mxCell id="lW97UnTnqZeZ66I5s9BI-72" value="" style="endArrow=classic;html=1;rounded=0;entryX=0;entryY=0.5;entryDx=0;entryDy=0;" edge="1" parent="1" source="lW97UnTnqZeZ66I5s9BI-41" target="lW97UnTnqZeZ66I5s9BI-62">
          <mxGeometry width="50" height="50" relative="1" as="geometry">
            <mxPoint x="440" y="430" as="sourcePoint" />
            <mxPoint x="490" y="380" as="targetPoint" />
          </mxGeometry>
        </mxCell>
      </root>
    </mxGraphModel>
  </diagram>
</mxfile>
